<svg xmlns="http://www.w3.org/2000/svg" width="920" height="430" viewBox="0 0 920 430"><rect width="100%" height="100%" fill="#f5f3ed"/><text x="74" y="25" font-size="19" font-family="sans-serif" fill="#202a28">Policy comparison</text><line x1="74" y1="346" x2="874" y2="346" stroke="#53615d"/><rect x="81.0" y="46.0" width="40.0" height="300.0" fill="#147d72"><title>p95 latency: 35.938s</title></rect><rect x="124.7" y="46.0" width="40.0" height="300.0" fill="#dd7a35"><title>estimated cost: 0.20659</title></rect><rect x="214.3" y="94.0" width="40.0" height="252.0" fill="#147d72"><title>p95 latency: 30.187s</title></rect><rect x="258.0" y="212.1" width="40.0" height="133.9" fill="#dd7a35"><title>estimated cost: 0.09221</title></rect><rect x="347.7" y="94.0" width="40.0" height="252.0" fill="#147d72"><title>p95 latency: 30.187s</title></rect><rect x="391.3" y="149.8" width="40.0" height="196.2" fill="#dd7a35"><title>estimated cost: 0.13510</title></rect><rect x="481.0" y="94.0" width="40.0" height="252.0" fill="#147d72"><title>p95 latency: 30.187s</title></rect><rect x="524.7" y="192.0" width="40.0" height="154.0" fill="#dd7a35"><title>estimated cost: 0.10608</title></rect><rect x="614.3" y="94.0" width="40.0" height="252.0" fill="#147d72"><title>p95 latency: 30.187s</title></rect><rect x="658.0" y="149.8" width="40.0" height="196.2" fill="#dd7a35"><title>estimated cost: 0.13510</title></rect><rect x="747.7" y="94.0" width="40.0" height="252.0" fill="#147d72"><title>p95 latency: 30.187s</title></rect><rect x="791.3" y="149.8" width="40.0" height="196.2" fill="#dd7a35"><title>estimated cost: 0.13510</title></rect><text x="140.7" y="368" text-anchor="middle" font-size="12">strongest</text><text x="274.0" y="368" text-anchor="middle" font-size="12">cheapest</text><text x="407.3" y="368" text-anchor="middle" font-size="12">static_rule</text><text x="540.7" y="368" text-anchor="middle" font-size="12">adaptive</text><text x="674.0" y="368" text-anchor="middle" font-size="12">round_robin</text><text x="807.3" y="368" text-anchor="middle" font-size="12">least_loaded</text><rect x="690" y="14" width="12" height="12" fill="#147d72"/><text x="708" y="25" font-size="12">p95 latency (scaled)</text><rect x="824" y="14" width="12" height="12" fill="#dd7a35"/><text x="842" y="25" font-size="12">cost (scaled)</text></svg>